<svg width="17" height="18" viewBox="0 0 17 18" fill="none" xmlns="http://www.w3.org/2000/svg">
<path d="M13.4587 3.33329H12.042V2.62496C12.042 2.4371 11.9674 2.25693 11.8345 2.12409C11.7017 1.99125 11.5215 1.91663 11.3337 1.91663C11.1458 1.91663 10.9656 1.99125 10.8328 2.12409C10.7 2.25693 10.6253 2.4371 10.6253 2.62496V3.33329H6.37533V2.62496C6.37533 2.4371 6.3007 2.25693 6.16786 2.12409C6.03502 1.99125 5.85485 1.91663 5.66699 1.91663C5.47913 1.91663 5.29896 1.99125 5.16613 2.12409C5.03329 2.25693 4.95866 2.4371 4.95866 2.62496V3.33329H3.54199C2.97841 3.33329 2.43791 3.55718 2.03939 3.95569C1.64088 4.35421 1.41699 4.89471 1.41699 5.45829V13.9583C1.41699 14.5219 1.64088 15.0624 2.03939 15.4609C2.43791 15.8594 2.97841 16.0833 3.54199 16.0833H13.4587C14.0222 16.0833 14.5627 15.8594 14.9613 15.4609C15.3598 15.0624 15.5837 14.5219 15.5837 13.9583V5.45829C15.5837 4.89471 15.3598 4.35421 14.9613 3.95569C14.5627 3.55718 14.0222 3.33329 13.4587 3.33329ZM14.167 13.9583C14.167 14.1462 14.0924 14.3263 13.9595 14.4592C13.8267 14.592 13.6465 14.6666 13.4587 14.6666H3.54199C3.35413 14.6666 3.17396 14.592 3.04113 14.4592C2.90829 14.3263 2.83366 14.1462 2.83366 13.9583V8.99996H14.167V13.9583ZM14.167 7.58329H2.83366V5.45829C2.83366 5.27043 2.90829 5.09026 3.04113 4.95743C3.17396 4.82459 3.35413 4.74996 3.54199 4.74996H4.95866V5.45829C4.95866 5.64615 5.03329 5.82632 5.16613 5.95916C5.29896 6.092 5.47913 6.16663 5.66699 6.16663C5.85485 6.16663 6.03502 6.092 6.16786 5.95916C6.3007 5.82632 6.37533 5.64615 6.37533 5.45829V4.74996H10.6253V5.45829C10.6253 5.64615 10.7 5.82632 10.8328 5.95916C10.9656 6.092 11.1458 6.16663 11.3337 6.16663C11.5215 6.16663 11.7017 6.092 11.8345 5.95916C11.9674 5.82632 12.042 5.64615 12.042 5.45829V4.74996H13.4587C13.6465 4.74996 13.8267 4.82459 13.9595 4.95743C14.0924 5.09026 14.167 5.27043 14.167 5.45829V7.58329Z" fill="#1875F0"/>
</svg>
