<svg width="18" height="18" viewBox="0 0 18 18" fill="none" xmlns="http://www.w3.org/2000/svg">
<path d="M9 6V9.75H12.75V8.25H10.5V6H9Z" fill="#33323D"/>
<path d="M15.969 6.37272C15.6307 5.57026 15.1396 4.84123 14.523 4.22622C13.5897 3.29289 12.4033 2.65355 11.1105 2.38722C10.2132 2.20459 9.2883 2.20459 8.391 2.38722C7.09701 2.65185 5.90961 3.29172 4.977 4.22697C4.36192 4.84264 3.871 5.57087 3.531 6.37197C3.17933 7.20343 2.99874 8.0972 3 8.99997L3.00075 9.01872H1.5L3.75 12L6 9.01872H4.50075L4.5 8.99997C4.49784 7.954 4.8101 6.93153 5.39625 6.06522C5.77434 5.50623 6.25571 5.02461 6.8145 4.64622C7.38296 4.26327 8.02059 3.99477 8.69175 3.85572C10.0557 3.5753 11.4751 3.84794 12.638 4.61372C13.801 5.3795 14.6122 6.57574 14.8935 7.93947C15.035 8.63838 15.035 9.35856 14.8935 10.0575C14.7563 10.7292 14.4876 11.3672 14.103 11.9347C13.9155 12.213 13.7003 12.4747 13.4625 12.7117C12.9834 13.1903 12.4169 13.5724 11.7938 13.8375C11.4764 13.9716 11.1465 14.0741 10.809 14.1435C10.1103 14.2848 9.39042 14.2848 8.69175 14.1435C8.02072 14.0059 7.38335 13.7375 6.816 13.3537C6.53696 13.1652 6.27654 12.9504 6.03825 12.7125L4.97775 13.773C5.60409 14.4002 6.34802 14.8976 7.16692 15.2369C7.98583 15.5761 8.86361 15.7505 9.75 15.75C10.6523 15.7496 11.5455 15.5693 12.3773 15.2197C13.583 14.7096 14.6145 13.8602 15.3465 12.7747C16.0998 11.6601 16.5017 10.3453 16.5 8.99997C16.5019 8.09738 16.3213 7.20373 15.969 6.37272Z" fill="#33323D"/>
</svg>
