<svg width="15" height="17" viewBox="0 0 15 17" fill="none" xmlns="http://www.w3.org/2000/svg">
<path d="M3.2381 8.09524H9.71429V9.71429H3.2381V8.09524ZM4.85714 14.5714H1.61905V1.61905H7.28571V5.66667H11.3333V8.17619L12.9524 6.55714V4.85714L8.09524 0H1.61905C1.18965 0 0.777838 0.170578 0.474208 0.474208C0.170578 0.777838 0 1.18965 0 1.61905V14.5714C0 15.0008 0.170578 15.4126 0.474208 15.7163C0.777838 16.0199 1.18965 16.1905 1.61905 16.1905H4.85714V14.5714ZM3.2381 12.9524H6.55714L7.28571 12.2238V11.3333H3.2381V12.9524ZM13.1143 8.90476C13.1952 8.90476 13.3571 8.98571 13.4381 9.06667L14.4905 10.119C14.6524 10.281 14.6524 10.6048 14.4905 10.7667L13.681 11.5762L11.981 9.87619L12.7905 9.06667C12.8714 8.98571 12.9524 8.90476 13.1143 8.90476ZM13.1143 12.0619L8.17619 17H6.47619V15.3L11.4143 10.3619L13.1143 12.0619Z" fill="#33323D"/>
</svg>
