<svg width="14" height="17" viewBox="0 0 14 17" fill="none" xmlns="http://www.w3.org/2000/svg">
<path d="M0 1.7C0 1.24913 0.179107 0.81673 0.497918 0.497918C0.81673 0.179107 1.24913 0 1.7 0H8.5C8.72542 4.81418e-05 8.94158 0.089633 9.10095 0.24905L13.351 4.49905C13.5104 4.65842 13.6 4.87458 13.6 5.1V15.3C13.6 15.7509 13.4209 16.1833 13.1021 16.5021C12.7833 16.8209 12.3509 17 11.9 17H1.7C1.24913 17 0.81673 16.8209 0.497918 16.5021C0.179107 16.1833 0 15.7509 0 15.3V1.7ZM11.5481 5.1L8.5 2.0519V5.1H11.5481ZM6.8 1.7H1.7V15.3H11.9V6.8H7.65C7.42457 6.8 7.20837 6.71045 7.04896 6.55104C6.88955 6.39163 6.8 6.17543 6.8 5.95V1.7ZM3.4 9.35C3.4 9.12457 3.48955 8.90837 3.64896 8.74896C3.80837 8.58955 4.02457 8.5 4.25 8.5H9.35C9.57543 8.5 9.79163 8.58955 9.95104 8.74896C10.1104 8.90837 10.2 9.12457 10.2 9.35C10.2 9.57543 10.1104 9.79163 9.95104 9.95104C9.79163 10.1104 9.57543 10.2 9.35 10.2H4.25C4.02457 10.2 3.80837 10.1104 3.64896 9.95104C3.48955 9.79163 3.4 9.57543 3.4 9.35ZM3.4 12.75C3.4 12.5246 3.48955 12.3084 3.64896 12.149C3.80837 11.9896 4.02457 11.9 4.25 11.9H9.35C9.57543 11.9 9.79163 11.9896 9.95104 12.149C10.1104 12.3084 10.2 12.5246 10.2 12.75C10.2 12.9754 10.1104 13.1916 9.95104 13.351C9.79163 13.5104 9.57543 13.6 9.35 13.6H4.25C4.02457 13.6 3.80837 13.5104 3.64896 13.351C3.48955 13.1916 3.4 12.9754 3.4 12.75Z" fill="#33323D"/>
</svg>
