<svg width="17" height="17" viewBox="0 0 17 17" fill="none" xmlns="http://www.w3.org/2000/svg">
<path d="M15.3348 9.06092C15.1986 8.90583 15.1235 8.70644 15.1235 8.5C15.1235 8.29356 15.1986 8.09417 15.3348 7.93908L16.4227 6.71524C16.5426 6.58153 16.617 6.41328 16.6353 6.23464C16.6537 6.056 16.6149 5.87614 16.5247 5.72088L14.8249 2.78028C14.7356 2.62519 14.5996 2.50226 14.4363 2.42901C14.273 2.35576 14.0908 2.33592 13.9155 2.37233L12.3178 2.69529C12.1145 2.7373 11.9028 2.70344 11.7227 2.6001C11.5427 2.49677 11.4067 2.3311 11.3404 2.13437L10.822 0.579077C10.7649 0.410272 10.6563 0.263655 10.5114 0.15995C10.3666 0.0562444 10.1927 0.000695882 10.0146 0.00115581H6.61503C6.4297 -0.00851761 6.2463 0.0427376 6.09283 0.147093C5.93937 0.251448 5.82428 0.403167 5.76515 0.579077L5.28921 2.13437C5.22292 2.3311 5.08692 2.49677 4.90686 2.6001C4.72681 2.70344 4.51515 2.7373 4.31185 2.69529L2.67157 2.37233C2.50546 2.34886 2.33612 2.37507 2.18488 2.44767C2.03364 2.52026 1.90727 2.63599 1.82169 2.78028L0.121917 5.72088C0.0294154 5.87441 -0.0121762 6.05326 0.00308809 6.23185C0.0183524 6.41044 0.0896911 6.57964 0.206905 6.71524L1.28626 7.93908C1.42251 8.09417 1.49765 8.29356 1.49765 8.5C1.49765 8.70644 1.42251 8.90583 1.28626 9.06092L0.206905 10.2848C0.0896911 10.4204 0.0183524 10.5896 0.00308809 10.7682C-0.0121762 10.9467 0.0294154 11.1256 0.121917 11.2791L1.82169 14.2197C1.91101 14.3748 2.04701 14.4977 2.2103 14.571C2.37359 14.6442 2.55584 14.6641 2.73106 14.6277L4.32884 14.3047C4.53215 14.2627 4.7438 14.2966 4.92386 14.3999C5.10392 14.5032 5.23992 14.6689 5.30621 14.8656L5.82464 16.4209C5.88378 16.5968 5.99886 16.7486 6.15233 16.8529C6.30579 16.9573 6.48919 17.0085 6.67453 16.9988H10.0741C10.2522 16.9993 10.426 16.9438 10.5709 16.8401C10.7158 16.7363 10.8244 16.5897 10.8815 16.4209L11.3999 14.8656C11.4662 14.6689 11.6022 14.5032 11.7822 14.3999C11.9623 14.2966 12.1739 14.2627 12.3772 14.3047L13.975 14.6277C14.1503 14.6641 14.3325 14.6442 14.4958 14.571C14.6591 14.4977 14.7951 14.3748 14.8844 14.2197L16.5842 11.2791C16.6744 11.1239 16.7131 10.944 16.6948 10.7654C16.6765 10.5867 16.6021 10.4185 16.4822 10.2848L15.3348 9.06092ZM14.0685 10.1998L14.7484 10.9647L13.6606 12.8514L12.6577 12.6474C12.0456 12.5223 11.4089 12.6263 10.8684 12.9396C10.3279 13.253 9.92121 13.7538 9.72561 14.3472L9.40265 15.2991H7.22695L6.92099 14.3302C6.7254 13.7369 6.31875 13.236 5.77824 12.9226C5.23773 12.6093 4.601 12.5053 3.98889 12.6304L2.98603 12.8344L1.88118 10.9562L2.56108 10.1913C2.97919 9.72381 3.21034 9.11866 3.21034 8.4915C3.21034 7.86434 2.97919 7.25919 2.56108 6.79173L1.88118 6.02684L2.96903 4.15709L3.97189 4.36106C4.584 4.48619 5.22074 4.38221 5.76124 4.06887C6.30175 3.75553 6.7084 3.25465 6.90399 2.66129L7.22695 1.70092H9.40265L9.72561 2.66979C9.92121 3.26315 10.3279 3.76403 10.8684 4.07737C11.4089 4.39071 12.0456 4.49468 12.6577 4.36956L13.6606 4.16559L14.7484 6.05233L14.0685 6.81723C13.6551 7.28361 13.4268 7.88526 13.4268 8.5085C13.4268 9.13173 13.6551 9.73339 14.0685 10.1998ZM8.3148 5.10046C7.64244 5.10046 6.98517 5.29984 6.42612 5.67339C5.86707 6.04693 5.43134 6.57787 5.17404 7.19905C4.91674 7.82024 4.84941 8.50377 4.98059 9.16322C5.11176 9.82266 5.43553 10.4284 5.91097 10.9038C6.3864 11.3793 6.99214 11.703 7.65159 11.8342C8.31103 11.9654 8.99456 11.8981 9.61575 11.6408C10.2369 11.3835 10.7679 10.9477 11.1414 10.3887C11.515 9.82963 11.7143 9.17237 11.7143 8.5C11.7143 7.59839 11.3562 6.7337 10.7186 6.09616C10.0811 5.45863 9.21642 5.10046 8.3148 5.10046ZM8.3148 10.1998C7.97862 10.1998 7.64999 10.1001 7.37046 9.91331C7.09094 9.72653 6.87307 9.46107 6.74442 9.15047C6.61577 8.83988 6.58211 8.49811 6.64769 8.16839C6.71328 7.83867 6.87517 7.5358 7.11288 7.29808C7.3506 7.06037 7.65347 6.89848 7.98319 6.83289C8.31292 6.76731 8.65468 6.80097 8.96528 6.92962C9.27587 7.05827 9.54134 7.27613 9.72811 7.55566C9.91488 7.83519 10.0146 8.16382 10.0146 8.5C10.0146 8.95081 9.83549 9.38315 9.51672 9.70192C9.19795 10.0207 8.76561 10.1998 8.3148 10.1998Z" fill="#33323D"/>
</svg>
