<svg width="23" height="20" viewBox="0 0 23 20" fill="none" xmlns="http://www.w3.org/2000/svg">
<path d="M18.7702 2.49957C18.6464 2.30887 18.4809 2.14171 18.2834 2.00775C18.0858 1.87379 17.8601 1.77569 17.6193 1.71912C17.3785 1.66255 17.1274 1.64864 16.8804 1.67818C16.6335 1.70772 16.3956 1.78013 16.1806 1.89123L6.54054 6.79957C6.25701 6.71623 5.96403 6.66623 5.67104 6.66623C4.91907 6.66623 4.1979 6.92963 3.66617 7.39847C3.13445 7.86731 2.83573 8.50319 2.83573 9.16623V16.6662C2.58507 16.6662 2.34468 16.754 2.16744 16.9103C1.9902 17.0666 1.89063 17.2786 1.89062 17.4996V18.3329H9.45146V17.4996C9.45146 17.2786 9.35189 17.0666 9.17465 16.9103C8.99741 16.754 8.75702 16.6662 8.50636 16.6662V9.64957L18.0708 4.77457C18.9781 4.31623 19.29 3.29957 18.7702 2.49957V2.49957ZM5.67104 10.4162C5.29506 10.4162 4.93447 10.2845 4.66861 10.0501C4.40275 9.8157 4.25339 9.49775 4.25339 9.16623C4.25339 8.83471 4.40275 8.51677 4.66861 8.28235C4.93447 8.04793 5.29506 7.91623 5.67104 7.91623C6.04703 7.91623 6.40762 8.04793 6.67348 8.28235C6.93934 8.51677 7.0887 8.83471 7.0887 9.16623C7.0887 9.49775 6.93934 9.8157 6.67348 10.0501C6.40762 10.2845 6.04703 10.4162 5.67104 10.4162V10.4162ZM9.8295 8.01623L7.65576 7.1829L8.8844 6.5579L11.0581 7.39123L9.8295 8.01623V8.01623ZM13.0996 6.34957L10.9258 5.51623L12.1545 4.89123L14.3282 5.72457L13.0996 6.34957ZM16.3791 4.6829L14.2053 3.84957L15.434 3.22457L17.5983 4.0579L16.3791 4.6829ZM16.0672 9.16623L20.7927 13.3329H17.9574V16.6662H14.177V13.3329H11.3417L16.0672 9.16623Z" fill="white"/>
</svg>
