<svg width="21" height="19" viewBox="0 0 21 19" fill="none" xmlns="http://www.w3.org/2000/svg">
<path d="M8.6088 11.916L6.41729 15.326C6.39522 15.3601 6.38114 15.3977 6.37587 15.4367C6.37061 15.4757 6.37426 15.5152 6.38662 15.5529C6.41215 15.6296 6.471 15.6943 6.55036 15.733C8.9763 16.9293 12.0884 16.9293 14.5128 15.733C14.5926 15.6946 14.6518 15.6298 14.6776 15.5529C14.6899 15.5152 14.6935 15.4756 14.6881 15.4367C14.6828 15.3977 14.6686 15.36 14.6464 15.326L12.4559 11.916C11.9043 12.2893 11.2279 12.4908 10.5326 12.4889C9.83711 12.4909 9.1605 12.2894 8.6088 11.916V11.916Z" fill="white"/>
<path d="M8.89285 6.28961L6.63896 2.91123C6.61661 2.87736 6.58678 2.84779 6.55125 2.82425C6.51572 2.80071 6.47519 2.78369 6.43208 2.77419C6.34372 2.75528 6.25047 2.76797 6.17269 2.80948C3.78522 4.06348 2.22891 6.43948 2.19149 8.88927C2.18952 8.9695 2.22373 9.04714 2.28661 9.10515C2.34899 9.16244 2.43424 9.19452 2.52468 9.19498L6.96904 9.22706C6.87847 8.6192 7.01905 8.00201 7.36877 7.47211C7.71445 6.94013 8.25045 6.52426 8.89285 6.28961V6.28961Z" fill="white"/>
<path d="M14.0913 9.2928L18.5361 9.26118C18.5806 9.261 18.6246 9.25295 18.6655 9.23752C18.7064 9.22209 18.7433 9.19959 18.7742 9.17135C18.8369 9.11342 18.8711 9.03599 18.8693 8.95593C18.8314 6.50568 17.2756 4.12968 14.8881 2.87614C14.8106 2.83459 14.7175 2.82174 14.6293 2.84039C14.5859 2.84973 14.5452 2.86668 14.5095 2.89022C14.4737 2.91377 14.4438 2.94343 14.4213 2.97743L12.168 6.35534C12.8103 6.59003 13.3463 7.00589 13.692 7.53784C14.0559 8.09289 14.1796 8.71072 14.0913 9.29326V9.2928Z" fill="white"/>
<path d="M13.1307 9.16667C13.1307 9.77445 12.8569 10.3573 12.3695 10.7871C11.882 11.2169 11.221 11.4583 10.5317 11.4583C9.84235 11.4583 9.18127 11.2169 8.69386 10.7871C8.20644 10.3573 7.93262 9.77445 7.93262 9.16667C7.93262 8.55888 8.20644 7.97598 8.69386 7.54621C9.18127 7.11644 9.84235 6.875 10.5317 6.875C11.221 6.875 11.882 7.11644 12.3695 7.54621C12.8569 7.97598 13.1307 8.55888 13.1307 9.16667Z" fill="white"/>
<path fill-rule="evenodd" clip-rule="evenodd" d="M10.5319 17.4167C15.6993 17.4167 19.8884 13.723 19.8884 9.16667C19.8884 4.61038 15.6993 0.916667 10.5319 0.916667C5.36449 0.916667 1.17536 4.61038 1.17536 9.16667C1.17536 13.723 5.36449 17.4167 10.5319 17.4167ZM10.5319 18.3333C16.2737 18.3333 20.928 14.2294 20.928 9.16667C20.928 4.10392 16.2737 0 10.5319 0C4.7901 0 0.135742 4.10392 0.135742 9.16667C0.135742 14.2294 4.7901 18.3333 10.5319 18.3333Z" fill="white"/>
</svg>
