<svg width="23" height="20" viewBox="0 0 23 20" fill="none" xmlns="http://www.w3.org/2000/svg">
<path d="M17.8577 4.25479C17.0021 3.5003 15.9862 2.90181 14.8682 2.49349C13.7502 2.08516 12.552 1.875 11.3418 1.875C10.1317 1.875 8.93345 2.08516 7.81545 2.49349C6.69745 2.90181 5.68161 3.5003 4.82593 4.25479C3.97025 5.00927 3.29149 5.90498 2.82839 6.89076C2.3653 7.87654 2.12695 8.9331 2.12695 10.0001C2.12695 11.0671 2.3653 12.1237 2.82839 13.1094C3.29149 14.0952 3.97025 14.9909 4.82593 15.7454C5.68161 16.4999 6.69745 17.0984 7.81545 17.5067C8.93345 17.915 10.1317 18.1252 11.3418 18.1252C12.552 18.1252 13.7502 17.915 14.8682 17.5067C15.9862 17.0984 17.0021 16.4999 17.8577 15.7454C18.7134 14.9909 19.3922 14.0952 19.8553 13.1094C20.3184 12.1237 20.5567 11.0671 20.5567 10.0001C20.5567 8.9331 20.3184 7.87654 19.8553 6.89076C19.3922 5.90498 18.7134 5.00927 17.8577 4.25479V4.25479ZM8.50652 16.4063V11.8751H14.1771V16.4063C12.3534 17.0314 10.3303 17.0314 8.50652 16.4063V16.4063ZM16.8552 14.8615C16.4715 15.1996 16.0491 15.5018 15.5948 15.7633V11.8751C15.5944 11.5437 15.4449 11.226 15.1791 10.9916C14.9133 10.7573 14.553 10.6255 14.1771 10.6251V5.6251C14.1771 5.51856 14.1463 5.4138 14.0874 5.32075C14.0286 5.2277 13.9437 5.14946 13.841 5.09345C13.7382 5.03745 13.6209 5.00554 13.5002 5.00075C13.3795 4.99597 13.2594 5.01847 13.1513 5.06611L8.89833 6.94111C8.7806 6.99302 8.68158 7.07281 8.61238 7.17154C8.54318 7.27027 8.50653 7.38404 8.50652 7.5001V10.6251C8.13067 10.6255 7.77032 10.7573 7.50455 10.9916C7.23878 11.226 7.08929 11.5437 7.08886 11.8751V15.7633C6.63459 15.5018 6.21222 15.1996 5.82848 14.8614C4.73802 13.8999 3.99541 12.6749 3.69455 11.3413C3.39369 10.0077 3.54809 8.62536 4.13823 7.36911C4.72837 6.11286 5.72775 5.03913 7.00998 4.28369C8.29221 3.52825 9.79971 3.12504 11.3418 3.12504C12.884 3.12504 14.3915 3.52825 15.6737 4.28369C16.9559 5.03913 17.9553 6.11286 18.5454 7.36911C19.1356 8.62536 19.29 10.0077 18.9891 11.3413C18.6883 12.6749 17.9456 13.8999 16.8552 14.8614V14.8615Z" fill="white"/>
</svg>
