<svg width="25" height="22" viewBox="0 0 25 22" fill="none" xmlns="http://www.w3.org/2000/svg">
<g clip-path="url(#clip0_172_1033)">
<path d="M10.1412 6.31641L6.19775 15.125H8.39825L9.15812 13.4277H13.5259L14.2857 15.125H16.4862L12.5428 6.31641H10.1412ZM9.96605 11.623L11.342 8.54936L12.7179 11.623H9.96605Z" fill="white"/>
<path d="M17.5789 2.40625H5.10349V0.6875H-0.354492V5.5H1.59479V16.5H-0.354492V21.3125H5.10349V19.5938H17.5789V21.3125H23.0368V16.5H21.0876V5.5H23.0368V0.6875H17.5789V2.40625ZM1.20493 4.125V2.0625H3.54406V4.125H1.20493ZM3.54406 19.9375H1.20493V17.875H3.54406V19.9375ZM17.5789 18.2188H5.10349V16.5H3.15421V5.5H5.10349V3.78125H17.5789V5.5H19.5281V16.5H17.5789V18.2188ZM21.4774 17.875V19.9375H19.1383V17.875H21.4774ZM19.1383 2.0625H21.4774V4.125H19.1383V2.0625Z" fill="white"/>
</g>
<defs>
<clipPath id="clip0_172_1033">
<rect width="24.9508" height="22" fill="white"/>
</clipPath>
</defs>
</svg>
