<svg width="23" height="20" viewBox="0 0 23 20" fill="none" xmlns="http://www.w3.org/2000/svg">
<path d="M7.5603 8.96701H7.01214C6.26409 8.94317 5.51847 9.05514 4.82154 9.29597C4.12462 9.53681 3.49127 9.90136 2.96079 10.367L2.80957 10.5226V15.1226H5.38025V12.5115L5.72679 12.167L5.88431 12.0059C6.70461 11.2628 7.72587 10.7161 8.85194 10.417C8.28815 10.0388 7.8435 9.53959 7.5603 8.96701V8.96701Z" fill="white"/>
<path d="M19.7463 10.3504C19.2158 9.88476 18.5825 9.5202 17.8856 9.27937C17.1886 9.03854 16.443 8.92657 15.695 8.95041C15.4655 8.95098 15.2363 8.96211 15.0082 8.98374C14.7197 9.52091 14.2872 9.98807 13.748 10.3449C14.9502 10.6381 16.0392 11.2142 16.8984 12.0115L17.0559 12.1671L17.3962 12.5115V15.1282H19.8786V10.506L19.7463 10.3504Z" fill="white"/>
<path d="M6.99381 7.88355H7.18913C7.09838 7.19646 7.23511 6.5009 7.58282 5.88082C7.93053 5.26075 8.47435 4.74266 9.14865 4.38911C8.90422 4.05986 8.56701 3.79222 8.17003 3.61241C7.77305 3.4326 7.32991 3.34677 6.88401 3.36334C6.43811 3.37991 6.00474 3.4983 5.62632 3.70693C5.2479 3.91555 4.93742 4.20725 4.72528 4.55347C4.51314 4.89968 4.4066 5.28854 4.41611 5.68197C4.42562 6.07539 4.55085 6.4599 4.77953 6.79783C5.00821 7.13576 5.3325 7.41553 5.72066 7.60975C6.10881 7.80397 6.54752 7.90597 6.99381 7.90577V7.88355Z" fill="white"/>
<path d="M15.3919 7.46702C15.3995 7.59471 15.3995 7.72267 15.3919 7.85036C15.5128 7.86726 15.6349 7.87654 15.7573 7.87814H15.877C16.3214 7.85724 16.752 7.73526 17.127 7.52407C17.502 7.31287 17.8086 7.01966 18.0169 6.67298C18.2252 6.32629 18.3282 5.93795 18.3158 5.54576C18.3034 5.15357 18.176 4.7709 17.9461 4.435C17.7161 4.0991 17.3915 3.82141 17.0037 3.62898C16.616 3.43655 16.1783 3.33593 15.7333 3.33692C15.2884 3.33791 14.8513 3.44047 14.4646 3.63462C14.0779 3.82876 13.7549 4.10788 13.5269 4.4448C14.0971 4.7731 14.566 5.22108 14.8915 5.74856C15.2171 6.27604 15.389 6.86652 15.3919 7.46702V7.46702Z" fill="white"/>
<path d="M11.2593 9.95592C12.8147 9.95592 14.0757 8.8441 14.0757 7.47259C14.0757 6.10108 12.8147 4.98926 11.2593 4.98926C9.70382 4.98926 8.44287 6.10108 8.44287 7.47259C8.44287 8.8441 9.70382 9.95592 11.2593 9.95592Z" fill="white"/>
<path d="M11.4108 11.2774C10.5879 11.2481 9.76685 11.3659 8.99698 11.6237C8.22711 11.8815 7.52434 12.2739 6.93095 12.7774L6.77344 12.933V16.4497C6.7759 16.5642 6.80392 16.6772 6.85592 16.7822C6.90792 16.8872 6.98287 16.9821 7.07648 17.0616C7.1701 17.141 7.28055 17.2034 7.40153 17.2452C7.52251 17.287 7.65164 17.3074 7.78155 17.3052H15.0211C15.151 17.3074 15.2801 17.287 15.4011 17.2452C15.522 17.2034 15.6325 17.141 15.7261 17.0616C15.8197 16.9821 15.8947 16.8872 15.9467 16.7822C15.9987 16.6772 16.0267 16.5642 16.0292 16.4497V12.9441L15.8779 12.7774C15.2884 12.2724 14.5881 11.8788 13.8199 11.6209C13.0518 11.363 12.232 11.2461 11.4108 11.2774V11.2774Z" fill="white"/>
</svg>
