<svg width="19" height="18" viewBox="0 0 19 18" fill="none" xmlns="http://www.w3.org/2000/svg">
<g clip-path="url(#clip0_172_947)">
<path d="M16.2172 1.125H2.18239C1.12579 1.125 0.268555 1.88086 0.268555 2.8125V15.1875C0.268555 16.1191 1.12579 16.875 2.18239 16.875H16.2172C17.2738 16.875 18.131 16.1191 18.131 15.1875V2.8125C18.131 1.88086 17.2738 1.125 16.2172 1.125ZM9.83774 11.25H7.9239V12.9375C7.9239 13.2469 7.63683 13.5 7.28596 13.5H6.01007C5.6592 13.5 5.37212 13.2469 5.37212 12.9375V5.0625C5.37212 4.75312 5.6592 4.5 6.01007 4.5H9.83774C11.9469 4.5 13.6654 6.01523 13.6654 7.875C13.6654 9.73477 11.9469 11.25 9.83774 11.25ZM9.83774 6.75H7.9239V9H9.83774C10.5395 9 11.1136 8.49375 11.1136 7.875C11.1136 7.25625 10.5395 6.75 9.83774 6.75Z" fill="white"/>
</g>
<defs>
<clipPath id="clip0_172_947">
<rect width="17.8625" height="18" fill="white" transform="translate(0.268555)"/>
</clipPath>
</defs>
</svg>
