<svg width="16" height="20" viewBox="0 0 16 20" fill="none" xmlns="http://www.w3.org/2000/svg">
<path d="M7.99665 0.767853C12.2277 0.767853 15.6574 4.1975 15.6574 8.42857C15.6574 11.6657 13.3827 15.1936 8.89237 19.0499C8.64268 19.2643 8.32434 19.3821 7.99518 19.3819C7.66602 19.3816 7.34789 19.2632 7.09858 19.0483L6.80158 18.7906C2.51001 15.0349 0.335938 11.5934 0.335938 8.42857C0.335938 4.1975 3.76558 0.767853 7.99665 0.767853ZM7.99665 5.48214C7.21521 5.48214 6.46577 5.79256 5.91321 6.34513C5.36065 6.89769 5.05022 7.64713 5.05022 8.42857C5.05022 9.21001 5.36065 9.95944 5.91321 10.512C6.46577 11.0646 7.21521 11.375 7.99665 11.375C8.77809 11.375 9.52753 11.0646 10.0801 10.512C10.6327 9.95944 10.9431 9.21001 10.9431 8.42857C10.9431 7.64713 10.6327 6.89769 10.0801 6.34513C9.52753 5.79256 8.77809 5.48214 7.99665 5.48214Z" fill="#33323D"/>
</svg>
