<svg width="20" height="20" viewBox="0 0 20 20" fill="none" xmlns="http://www.w3.org/2000/svg">
<path d="M15.8333 2.5H4.16667C3.24619 2.5 2.5 3.24619 2.5 4.16667V15.8333C2.5 16.7538 3.24619 17.5 4.16667 17.5H15.8333C16.7538 17.5 17.5 16.7538 17.5 15.8333V4.16667C17.5 3.24619 16.7538 2.5 15.8333 2.5Z" stroke="#1875F0" stroke-width="2" stroke-linecap="round" stroke-linejoin="round"/>
<path d="M17.4974 12.4999L13.3307 8.33325L4.16406 17.4999" stroke="#1875F0" stroke-width="2" stroke-linecap="round" stroke-linejoin="round"/>
<path d="M7.08594 8.33325C7.77629 8.33325 8.33594 7.77361 8.33594 7.08325C8.33594 6.3929 7.77629 5.83325 7.08594 5.83325C6.39558 5.83325 5.83594 6.3929 5.83594 7.08325C5.83594 7.77361 6.39558 8.33325 7.08594 8.33325Z" stroke="#1875F0" stroke-width="2" stroke-linecap="round" stroke-linejoin="round"/>
</svg>
