<svg width="63" height="68" viewBox="0 0 63 68" fill="none" xmlns="http://www.w3.org/2000/svg">
<path d="M5.98438 43.3883V46.0259C5.9846 46.586 6.12672 47.1377 6.39866 47.6342C6.6706 48.131 7.06427 48.5573 7.5462 48.8777L18.5103 38.4233L15.4707 35.525C15.3893 35.4476 15.2928 35.3861 15.1866 35.3441C15.0803 35.3021 14.9664 35.2805 14.8514 35.2805C14.7364 35.2805 14.6226 35.3021 14.5163 35.3441C14.4101 35.3861 14.3136 35.4476 14.2322 35.525L5.98438 43.3883Z" fill="url(#paint0_linear_317_2961)"/>
<path d="M14.844 32.1028C15.2115 32.1019 15.5756 32.1703 15.9152 32.3047C16.2547 32.4388 16.563 32.636 16.8221 32.8844L20.5663 36.4544L28.2538 29.1244C29.0511 28.3654 30.1318 27.9391 31.2586 27.9391C32.3853 27.9391 33.466 28.3654 34.2633 29.1244L44.9525 39.3164L48.2561 36.1664C48.7813 35.6669 49.4924 35.3864 50.2343 35.3864C50.9759 35.3864 51.6873 35.6669 52.2121 36.1664L56.5396 40.2959V22.2082C56.5396 21.5974 56.3709 20.9974 56.0503 20.4685C55.73 19.9396 55.2694 19.5004 54.7147 19.195L33.0831 7.28667C32.5284 6.98124 31.8988 6.82043 31.2582 6.82043C30.6176 6.82043 29.9882 6.98124 29.4333 7.28667L7.80145 19.195C7.24672 19.5004 6.78603 19.9396 6.4657 20.4685C6.14536 20.9974 5.97669 21.5974 5.97656 22.2082V39.4517L12.8646 32.8841C13.1239 32.6354 13.4324 32.4382 13.7722 32.3044C14.1119 32.1703 14.4762 32.1016 14.844 32.1028Z" fill="url(#paint1_linear_317_2961)"/>
<path d="M47.0234 41.2859L54.9837 48.8774C55.4657 48.557 55.8594 48.1304 56.1312 47.6339C56.403 47.1374 56.5449 46.5857 56.5453 46.0256V44.2316L50.8582 38.8091C50.694 38.6525 50.4712 38.5646 50.239 38.5646C50.0065 38.5646 49.7837 38.6525 49.6195 38.8091L47.0234 41.2859Z" fill="url(#paint2_linear_317_2961)"/>
<path d="M44.9545 43.2533L42.8908 41.2859L32.2016 31.0943C31.9521 30.8566 31.6142 30.7234 31.2616 30.7234C30.9092 30.7234 30.5711 30.8566 30.3217 31.0943L22.6342 38.4242L20.5701 40.3922L10.1484 50.328L29.4357 60.9463C29.9905 61.2517 30.6199 61.4125 31.2605 61.4125C31.9011 61.4125 32.5307 61.2517 33.0854 60.9463L52.3727 50.328L44.9545 43.2533Z" fill="url(#paint3_linear_317_2961)"/>
<path d="M31.2616 3.62182C31.9771 3.62164 32.6803 3.80116 33.2999 4.14233L57.4668 17.4462C58.0866 17.7874 58.601 18.2781 58.9588 18.869C59.3165 19.4599 59.505 20.1302 59.505 20.8125V47.4203C59.505 48.1025 59.3165 48.7728 58.9588 49.3638C58.601 49.9545 58.0866 50.4453 57.4668 50.7864L33.2999 64.0903C32.68 64.4314 31.9771 64.6111 31.2615 64.6111C30.5459 64.6111 29.8429 64.4314 29.2231 64.0903L5.05621 50.7864C4.4365 50.4453 3.92188 49.9545 3.56411 49.3638C3.20633 48.7728 3.01798 48.1025 3.018 47.4203V20.8125C3.01799 20.1302 3.20633 19.4599 3.56411 18.869C3.92191 18.2781 4.4365 17.7874 5.05621 17.4462L29.2231 4.14233C29.8429 3.80119 30.546 3.62167 31.2616 3.62182ZM31.2616 0.744202C30.0164 0.744665 28.7931 1.05721 27.7144 1.65051L3.54721 14.9544C2.47006 15.5495 1.57556 16.4038 0.953087 17.4318C0.33062 18.4598 0.00197781 19.6255 0 20.8125V47.4203C0.00204146 48.6075 0.330749 49.7733 0.95327 50.8011C1.57579 51.8292 2.47034 52.6833 3.54753 53.2785L27.7144 66.5824C28.793 67.1761 30.0163 67.4884 31.2616 67.4884C32.507 67.4884 33.7303 67.1761 34.8089 66.5824L58.9758 53.2785C60.0531 52.6836 60.9479 51.8292 61.5706 50.8014C62.1932 49.7733 62.522 48.6075 62.5242 47.4203V20.8125C62.5223 19.6255 62.1936 18.4598 61.5712 17.4318C60.9485 16.4038 60.054 15.5495 58.977 14.9544L34.8101 1.65051C33.7315 1.05725 32.5082 0.744708 31.2629 0.744202H31.2616Z" fill="url(#paint4_linear_317_2961)"/>
<defs>
<linearGradient id="paint0_linear_317_2961" x1="12.2473" y1="7.2426" x2="12.2473" y2="61.632" gradientUnits="userSpaceOnUse">
<stop offset="0.004" stop-color="#4C99D4"/>
<stop offset="0.5" stop-color="#56C3E6"/>
<stop offset="1" stop-color="#B0D8BC"/>
</linearGradient>
<linearGradient id="paint1_linear_317_2961" x1="31.2581" y1="7.25562" x2="31.2581" y2="61.6534" gradientUnits="userSpaceOnUse">
<stop offset="0.004" stop-color="#4C99D4"/>
<stop offset="0.5" stop-color="#56C3E6"/>
<stop offset="1" stop-color="#B0D8BC"/>
</linearGradient>
<linearGradient id="paint2_linear_317_2961" x1="51.7845" y1="7.24399" x2="51.7845" y2="61.6347" gradientUnits="userSpaceOnUse">
<stop offset="0.004" stop-color="#4C99D4"/>
<stop offset="0.5" stop-color="#56C3E6"/>
<stop offset="1" stop-color="#B0D8BC"/>
</linearGradient>
<linearGradient id="paint3_linear_317_2961" x1="31.2605" y1="7.2462" x2="31.2605" y2="61.6273" gradientUnits="userSpaceOnUse">
<stop offset="0.004" stop-color="#4C99D4"/>
<stop offset="0.5" stop-color="#56C3E6"/>
<stop offset="1" stop-color="#B0D8BC"/>
</linearGradient>
<linearGradient id="paint4_linear_317_2961" x1="31.2621" y1="67.4884" x2="31.2621" y2="0.744202" gradientUnits="userSpaceOnUse">
<stop stop-color="#B0D8BC"/>
<stop offset="0.5" stop-color="#56C3E6"/>
<stop offset="0.996" stop-color="#4C99D4"/>
</linearGradient>
</defs>
</svg>
