<svg width="18" height="14" viewBox="0 0 18 14" fill="none" xmlns="http://www.w3.org/2000/svg">
<path d="M14.8307 0.333344H3.16406C2.50102 0.333344 1.86514 0.596736 1.3963 1.06558C0.927455 1.53442 0.664063 2.1703 0.664062 2.83334V11.1667C0.664063 11.8297 0.927455 12.4656 1.3963 12.9344C1.86514 13.4033 2.50102 13.6667 3.16406 13.6667H14.8307C15.4938 13.6667 16.1297 13.4033 16.5985 12.9344C17.0673 12.4656 17.3307 11.8297 17.3307 11.1667V2.83334C17.3307 2.1703 17.0673 1.53442 16.5985 1.06558C16.1297 0.596736 15.4938 0.333344 14.8307 0.333344ZM14.2724 2.00001L8.9974 5.95834L3.7224 2.00001H14.2724ZM14.8307 12H3.16406C2.94305 12 2.73109 11.9122 2.57481 11.7559C2.41853 11.5997 2.33073 11.3877 2.33073 11.1667V3.04168L8.4974 7.66668C8.64164 7.77486 8.81709 7.83334 8.9974 7.83334C9.17771 7.83334 9.35315 7.77486 9.4974 7.66668L15.6641 3.04168V11.1667C15.6641 11.3877 15.5763 11.5997 15.42 11.7559C15.2637 11.9122 15.0517 12 14.8307 12Z" fill="#33323D"/>
</svg>
