<svg width="18" height="18" viewBox="0 0 18 18" fill="none" xmlns="http://www.w3.org/2000/svg">
<g clip-path="url(#clip0_312_2338)">
<path d="M11.2895 3.75C12.0221 3.89292 12.6953 4.25119 13.2231 4.77895C13.7508 5.30671 14.1091 5.97995 14.252 6.7125M11.2895 0.75C12.8115 0.919077 14.2307 1.60063 15.3142 2.68276C16.3977 3.76488 17.081 5.18326 17.252 6.705M16.502 12.69V14.94C16.5029 15.1489 16.4601 15.3556 16.3764 15.547C16.2927 15.7384 16.17 15.9102 16.0161 16.0514C15.8622 16.1926 15.6805 16.3001 15.4826 16.367C15.2847 16.4339 15.0751 16.4588 14.867 16.44C12.5592 16.1892 10.3423 15.4006 8.39452 14.1375C6.5824 12.986 5.04603 11.4496 3.89453 9.6375C2.62701 7.6809 1.83821 5.45325 1.59203 3.135C1.57328 2.9276 1.59793 2.71857 1.6644 2.52122C1.73087 2.32387 1.8377 2.14252 1.9781 1.98872C2.1185 1.83491 2.28938 1.71203 2.47987 1.62789C2.67036 1.54375 2.87628 1.5002 3.08453 1.5H5.33453C5.6985 1.49642 6.05137 1.62531 6.32735 1.86265C6.60332 2.09999 6.78358 2.42959 6.83452 2.79C6.92949 3.51005 7.10561 4.21705 7.35953 4.8975C7.46043 5.16594 7.48227 5.45769 7.42246 5.73816C7.36264 6.01863 7.22367 6.27608 7.02202 6.48L6.06953 7.4325C7.13719 9.31016 8.69187 10.8648 10.5695 11.9325L11.522 10.98C11.7259 10.7784 11.9834 10.6394 12.2639 10.5796C12.5443 10.5198 12.8361 10.5416 13.1045 10.6425C13.785 10.8964 14.492 11.0725 15.212 11.1675C15.5763 11.2189 15.9091 11.4024 16.1469 11.6831C16.3848 11.9638 16.5112 12.3222 16.502 12.69Z" stroke="#33323D" stroke-width="2" stroke-linecap="round" stroke-linejoin="round"/>
</g>
<defs>
<clipPath id="clip0_312_2338">
<rect width="18" height="18" fill="white"/>
</clipPath>
</defs>
</svg>
