<svg width="22" height="22" viewBox="0 0 22 22" fill="none" xmlns="http://www.w3.org/2000/svg">
<path d="M2.75 5.5H4.58333H19.25" stroke="#EF4F4F" stroke-width="2" stroke-linecap="round" stroke-linejoin="round"/>
<path d="M7.33325 5.49967V3.66634C7.33325 3.18011 7.52641 2.7138 7.87022 2.36998C8.21404 2.02616 8.68036 1.83301 9.16659 1.83301H12.8333C13.3195 1.83301 13.7858 2.02616 14.1296 2.36998C14.4734 2.7138 14.6666 3.18011 14.6666 3.66634V5.49967M17.4166 5.49967V18.333C17.4166 18.8192 17.2234 19.2856 16.8796 19.6294C16.5358 19.9732 16.0695 20.1663 15.5833 20.1663H6.41659C5.93036 20.1663 5.46404 19.9732 5.12022 19.6294C4.77641 19.2856 4.58325 18.8192 4.58325 18.333V5.49967H17.4166Z" stroke="#EF4F4F" stroke-width="2" stroke-linecap="round" stroke-linejoin="round"/>
<path d="M12.8333 10.083V15.583" stroke="#EF4F4F" stroke-width="2" stroke-linecap="round" stroke-linejoin="round"/>
<path d="M9.16675 10.083V15.583" stroke="#EF4F4F" stroke-width="2" stroke-linecap="round" stroke-linejoin="round"/>
</svg>
