<svg width="23" height="23" viewBox="0 0 23 23" fill="none" xmlns="http://www.w3.org/2000/svg">
<path fill-rule="evenodd" clip-rule="evenodd" d="M15.3036 0.928689C15.3704 0.861754 15.4497 0.808649 15.537 0.772415C15.6243 0.736181 15.7179 0.717529 15.8125 0.717529C15.907 0.717529 16.0006 0.736181 16.088 0.772415C16.1753 0.808649 16.2546 0.861754 16.3214 0.928689L22.0714 6.67869C22.1383 6.74545 22.1914 6.82477 22.2276 6.91209C22.2639 6.99941 22.2825 7.09302 22.2825 7.18756C22.2825 7.2821 22.2639 7.37572 22.2276 7.46304C22.1914 7.55036 22.1383 7.62967 22.0714 7.69644L19.3372 10.4306L18.1455 15.193C18.0549 15.5556 17.8716 15.8885 17.6135 16.1589C17.3555 16.4293 17.0316 16.628 16.6735 16.7354L1.80261 21.1974L6.26461 6.32506C6.37216 5.9675 6.57072 5.64399 6.84085 5.38621C7.11097 5.12843 7.44341 4.94522 7.80561 4.8545L12.568 3.66425L15.3036 0.928689ZM12.7161 5.10894L8.15492 6.24888C8.03385 6.2791 7.92272 6.34032 7.83249 6.42652C7.74225 6.51272 7.67602 6.62093 7.6403 6.7405L3.94592 19.0527L16.261 15.3583C16.3799 15.3223 16.4874 15.2561 16.573 15.1661C16.6587 15.0762 16.7196 14.9656 16.7497 14.8451L17.8911 10.2825L12.7161 5.1075V5.10894Z" fill="#413B5A"/>
<path fill-rule="evenodd" clip-rule="evenodd" d="M4.07089 19.0152L11.4999 12.9375C11.7842 12.9375 12.0621 12.8532 12.2985 12.6952C12.5349 12.5373 12.7192 12.3128 12.828 12.0501C12.9368 11.7874 12.9652 11.4984 12.9098 11.2196C12.8543 10.9407 12.7174 10.6846 12.5164 10.4835C12.3153 10.2825 12.0592 10.1456 11.7803 10.0901C11.5015 10.0347 11.2125 10.0631 10.9498 10.1719C10.6871 10.2807 10.4626 10.465 10.3047 10.7014C10.1467 10.9378 10.0624 11.2157 10.0624 11.5L3.98464 18.929L3.94727 19.0526L4.07089 19.0152Z" fill="#413B5A"/>
</svg>
