<svg width="22" height="22" viewBox="0 0 22 22" fill="none" xmlns="http://www.w3.org/2000/svg">
<path d="M15 8.99998H13V6.99998C13 6.73477 12.8946 6.48041 12.7071 6.29288C12.5196 6.10534 12.2652 5.99998 12 5.99998H6.99998C6.73477 5.99998 6.48041 6.10534 6.29288 6.29288C6.10534 6.48041 5.99998 6.73477 5.99998 6.99998V12C5.99998 12.2652 6.10534 12.5196 6.29288 12.7071C6.48041 12.8946 6.73477 13 6.99998 13H8.99998V15C8.99998 15.2652 9.10534 15.5196 9.29288 15.7071C9.48041 15.8946 9.73477 16 9.99998 16H15C15.2652 16 15.5196 15.8946 15.7071 15.7071C15.8946 15.5196 16 15.2652 16 15V9.99998C16 9.73477 15.8946 9.48041 15.7071 9.29288C15.5196 9.10534 15.2652 8.99998 15 8.99998ZM8.99998 9.99998V11H7.99998V7.99998H11V8.99998H9.99998C9.73477 8.99998 9.48041 9.10534 9.29288 9.29288C9.10534 9.48041 8.99998 9.73477 8.99998 9.99998ZM14 14H11V11H14V14ZM20 17.28V4.71998C20.2704 4.56955 20.5023 4.3584 20.6773 4.10317C20.8523 3.84793 20.9657 3.55556 21.0085 3.24906C21.0514 2.94257 21.0225 2.63031 20.9242 2.33686C20.8259 2.04342 20.6608 1.77679 20.442 1.55795C20.2232 1.33912 19.9566 1.17406 19.6631 1.07575C19.3697 0.977448 19.0574 0.948583 18.7509 0.991428C18.4444 1.03427 18.152 1.14766 17.8968 1.32267C17.6416 1.49768 17.4304 1.72953 17.28 1.99998H4.71998C4.56955 1.72953 4.3584 1.49768 4.10317 1.32267C3.84793 1.14766 3.55556 1.03427 3.24906 0.991428C2.94257 0.948583 2.63031 0.977448 2.33686 1.07575C2.04342 1.17406 1.77679 1.33912 1.55795 1.55795C1.33912 1.77679 1.17406 2.04342 1.07575 2.33686C0.977448 2.63031 0.948583 2.94257 0.991428 3.24906C1.03427 3.55556 1.14766 3.84793 1.32267 4.10317C1.49768 4.3584 1.72953 4.56955 1.99998 4.71998V17.28C1.72953 17.4304 1.49768 17.6416 1.32267 17.8968C1.14766 18.152 1.03427 18.4444 0.991428 18.7509C0.948583 19.0574 0.977448 19.3697 1.07575 19.6631C1.17406 19.9566 1.33912 20.2232 1.55795 20.442C1.77679 20.6608 2.04342 20.8259 2.33686 20.9242C2.63031 21.0225 2.94257 21.0514 3.24906 21.0085C3.55556 20.9657 3.84793 20.8523 4.10317 20.6773C4.3584 20.5023 4.56955 20.2704 4.71998 20H17.28C17.4304 20.2704 17.6416 20.5023 17.8968 20.6773C18.152 20.8523 18.4444 20.9657 18.7509 21.0085C19.0574 21.0514 19.3697 21.0225 19.6631 20.9242C19.9566 20.8259 20.2232 20.6608 20.442 20.442C20.6608 20.2232 20.8259 19.9566 20.9242 19.6631C21.0225 19.3697 21.0514 19.0574 21.0085 18.7509C20.9657 18.4444 20.8523 18.152 20.6773 17.8968C20.5023 17.6416 20.2704 17.4304 20 17.28ZM18 17.28C17.6993 17.4504 17.4504 17.6993 17.28 18H4.71998C4.54956 17.6993 4.30071 17.4504 3.99998 17.28V4.71998C4.30071 4.54956 4.54956 4.30071 4.71998 3.99998H17.28C17.4504 4.30071 17.6993 4.54956 18 4.71998V17.28Z" fill="#1875F0"/>
</svg>
