<svg width="18" height="18" viewBox="0 0 18 18" fill="none" xmlns="http://www.w3.org/2000/svg">
<path d="M15 8.13636C15 12.9091 9 17 9 17C9 17 3 12.9091 3 8.13636C3 6.5089 3.63214 4.94809 4.75736 3.7973C5.88258 2.64651 7.4087 2 9 2C10.5913 2 12.1174 2.64651 13.2426 3.7973C14.3679 4.94809 15 6.5089 15 8.13636Z" stroke="#33323D" stroke-width="1.5" stroke-linecap="round" stroke-linejoin="round"/>
<path d="M9 10C10.1046 10 11 9.10457 11 8C11 6.89543 10.1046 6 9 6C7.89543 6 7 6.89543 7 8C7 9.10457 7.89543 10 9 10Z" stroke="#33323D" stroke-width="1.5" stroke-linecap="round" stroke-linejoin="round"/>
</svg>
