<svg width="4" height="4" viewBox="0 0 4 4" fill="none" xmlns="http://www.w3.org/2000/svg">
<path d="M3.64053 2.6585L2.50003 2L3.64053 1.3415C3.69748 1.30811 3.73891 1.25355 3.75579 1.18973C3.77266 1.12591 3.7636 1.058 3.7306 1.00083C3.69759 0.943655 3.6433 0.90186 3.57959 0.884563C3.51588 0.867266 3.44792 0.875871 3.39053 0.9085L2.25003 1.567V0.25C2.25003 0.183696 2.22369 0.120107 2.1768 0.0732234C2.12992 0.0263393 2.06633 0 2.00003 0C1.93372 0 1.87013 0.0263393 1.82325 0.0732234C1.77637 0.120107 1.75003 0.183696 1.75003 0.25V1.567L0.609526 0.9085C0.552137 0.875871 0.484171 0.867266 0.42046 0.884563C0.35675 0.90186 0.302467 0.943655 0.269458 1.00083C0.236449 1.058 0.227393 1.12591 0.244267 1.18973C0.261141 1.25355 0.302575 1.30811 0.359526 1.3415L1.50003 2L0.359526 2.6585C0.302575 2.69189 0.261141 2.74645 0.244267 2.81027C0.227393 2.87409 0.236449 2.942 0.269458 2.99917C0.302467 3.05635 0.35675 3.09814 0.42046 3.11544C0.484171 3.13273 0.552137 3.12413 0.609526 3.0915L1.75003 2.433V3.75C1.75003 3.8163 1.77637 3.87989 1.82325 3.92678C1.87013 3.97366 1.93372 4 2.00003 4C2.06633 4 2.12992 3.97366 2.1768 3.92678C2.22369 3.87989 2.25003 3.8163 2.25003 3.75V2.433L3.39053 3.0915C3.44792 3.12413 3.51588 3.13273 3.57959 3.11544C3.6433 3.09814 3.69759 3.05635 3.7306 2.99917C3.7636 2.942 3.77266 2.87409 3.75579 2.81027C3.73891 2.74645 3.69748 2.69189 3.64053 2.6585Z" fill="#EF4F4F"/>
</svg>
