<svg width="21" height="20" viewBox="0 0 21 20" fill="none" xmlns="http://www.w3.org/2000/svg">
<path d="M10.0833 4.75001C13.2078 4.75001 15.75 7.29222 15.75 10.4167C15.75 13.5411 13.2078 16.0833 10.0833 16.0833C6.95887 16.0833 4.41667 13.5411 4.41667 10.4167C4.41667 7.29222 6.95887 4.75001 10.0833 4.75001ZM10.0833 3.33334C6.17121 3.33334 3 6.50455 3 10.4167C3 14.3288 6.17121 17.5 10.0833 17.5C13.9955 17.5 17.1667 14.3288 17.1667 10.4167C17.1667 6.50455 13.9955 3.33334 10.0833 3.33334ZM10.7917 12.5417H9.375V13.9583H10.7917V12.5417ZM9.375 11.125H10.7917L11.1458 6.87501H9.02083L9.375 11.125Z" fill="#EF4F4F"/>
</svg>
