<svg width="23" height="23" viewBox="0 0 23 23" fill="none" xmlns="http://www.w3.org/2000/svg">
<path fill-rule="evenodd" clip-rule="evenodd" d="M15.3036 0.928445C15.3704 0.86151 15.4497 0.808405 15.537 0.772171C15.6243 0.735936 15.7179 0.717285 15.8125 0.717285C15.907 0.717285 16.0006 0.735936 16.088 0.772171C16.1753 0.808405 16.2546 0.86151 16.3214 0.928445L22.0714 6.67844C22.1383 6.74521 22.1914 6.82452 22.2276 6.91185C22.2639 6.99917 22.2825 7.09278 22.2825 7.18732C22.2825 7.28186 22.2639 7.37547 22.2276 7.46279C22.1914 7.55011 22.1383 7.62943 22.0714 7.69619L19.3372 10.4303L18.1455 15.1928C18.0549 15.5554 17.8716 15.8882 17.6135 16.1586C17.3555 16.4291 17.0316 16.6277 16.6735 16.7352L1.80261 21.1972L6.26461 6.32482C6.37216 5.96726 6.57072 5.64375 6.84085 5.38597C7.11097 5.12819 7.44341 4.94497 7.80561 4.85426L12.568 3.66401L15.3036 0.928445ZM12.7161 5.10869L8.15492 6.24863C8.03385 6.27885 7.92272 6.34007 7.83249 6.42628C7.74226 6.51248 7.67602 6.62069 7.6403 6.74026L3.94592 19.0524L16.261 15.3581C16.3799 15.322 16.4874 15.2558 16.573 15.1659C16.6587 15.076 16.7196 14.9654 16.7497 14.8449L17.8911 10.2823L12.7161 5.10726V5.10869Z" fill="white"/>
<path fill-rule="evenodd" clip-rule="evenodd" d="M4.07089 19.0152L11.4999 12.9375C11.7842 12.9375 12.0621 12.8532 12.2985 12.6952C12.5349 12.5373 12.7192 12.3128 12.828 12.0501C12.9368 11.7874 12.9652 11.4984 12.9098 11.2196C12.8543 10.9407 12.7174 10.6846 12.5164 10.4835C12.3153 10.2825 12.0592 10.1456 11.7803 10.0901C11.5015 10.0347 11.2125 10.0631 10.9498 10.1719C10.6871 10.2807 10.4626 10.465 10.3047 10.7014C10.1467 10.9378 10.0624 11.2157 10.0624 11.5L3.98464 18.929L3.94727 19.0526L4.07089 19.0152Z" fill="white"/>
</svg>
