<svg width="20" height="20" viewBox="0 0 20 20" fill="none" xmlns="http://www.w3.org/2000/svg">
<path d="M16.5498 2.50006C16.4407 2.30936 16.2948 2.1422 16.1206 2.00824C15.9464 1.87428 15.7474 1.77618 15.5351 1.71961C15.3227 1.66304 15.1013 1.64913 14.8836 1.67867C14.6658 1.70821 14.4561 1.78062 14.2665 1.89172L5.7665 6.80006C5.5165 6.71672 5.25817 6.66672 4.99984 6.66672C4.3368 6.66672 3.70091 6.93011 3.23207 7.39895C2.76323 7.8678 2.49984 8.50368 2.49984 9.16672V16.6667C2.27882 16.6667 2.06686 16.7545 1.91058 16.9108C1.7543 17.0671 1.6665 17.279 1.6665 17.5001V18.3334H8.33317V17.5001C8.33317 17.279 8.24537 17.0671 8.08909 16.9108C7.93281 16.7545 7.72085 16.6667 7.49984 16.6667V9.65005L15.9332 4.77506C16.7332 4.31672 17.0082 3.30006 16.5498 2.50006V2.50006ZM4.99984 10.4167C4.66832 10.4167 4.35037 10.285 4.11595 10.0506C3.88153 9.81618 3.74984 9.49824 3.74984 9.16672C3.74984 8.8352 3.88153 8.51726 4.11595 8.28284C4.35037 8.04842 4.66832 7.91672 4.99984 7.91672C5.33136 7.91672 5.6493 8.04842 5.88372 8.28284C6.11814 8.51726 6.24984 8.8352 6.24984 9.16672C6.24984 9.49824 6.11814 9.81618 5.88372 10.0506C5.6493 10.285 5.33136 10.4167 4.99984 10.4167V10.4167ZM8.6665 8.01672L6.74984 7.18339L7.83317 6.55839L9.74984 7.39172L8.6665 8.01672V8.01672ZM11.5498 6.35006L9.63317 5.51672L10.7165 4.89172L12.6332 5.72506L11.5498 6.35006ZM14.4415 4.68339L12.5248 3.85005L13.6082 3.22505L15.5165 4.05839L14.4415 4.68339ZM14.1665 9.16672L18.3332 13.3334H15.8332V16.6667H12.4998V13.3334H9.99984L14.1665 9.16672Z" fill="#33323D"/>
</svg>
