<svg width="19" height="19" viewBox="0 0 19 19" fill="none" xmlns="http://www.w3.org/2000/svg">
<path d="M7.47091 11.9165L5.53858 15.3265C5.51912 15.3606 5.50671 15.3982 5.50206 15.4372C5.49742 15.4762 5.50064 15.5157 5.51154 15.5534C5.53405 15.6301 5.58594 15.6948 5.65591 15.7335C7.79496 16.9298 10.539 16.9298 12.6767 15.7335C12.747 15.6951 12.7993 15.6303 12.822 15.5534C12.8328 15.5157 12.836 15.4761 12.8313 15.4371C12.8266 15.3982 12.814 15.3605 12.7945 15.3265L10.863 11.9165C10.3767 12.2898 9.7803 12.4913 9.16721 12.4894C8.55396 12.4914 7.95737 12.2899 7.47091 11.9165Z" fill="#33323D"/>
<path d="M7.72336 6.2901L5.73602 2.91172C5.71631 2.87785 5.69002 2.84827 5.65869 2.82474C5.62735 2.8012 5.59162 2.78418 5.55361 2.77468C5.4757 2.75577 5.39348 2.76845 5.3249 2.80997C3.21977 4.06397 1.84752 6.43997 1.81452 8.88976C1.81279 8.96999 1.84295 9.04763 1.8984 9.10564C1.9534 9.16293 2.02857 9.19501 2.10832 9.19547L6.02707 9.22755C5.94721 8.61969 6.07116 8.0025 6.37952 7.4726C6.68432 6.94062 7.15693 6.52475 7.72336 6.2901Z" fill="#33323D"/>
<path d="M12.3052 9.2928L16.2244 9.26118C16.2636 9.261 16.3024 9.25295 16.3385 9.23752C16.3745 9.2221 16.4071 9.19959 16.4343 9.17135C16.4896 9.11342 16.5198 9.03599 16.5182 8.95593C16.4847 6.50568 15.113 4.12968 13.0078 2.87614C12.9394 2.83459 12.8574 2.82174 12.7796 2.84039C12.7414 2.84973 12.7055 2.86668 12.674 2.89022C12.6424 2.91377 12.616 2.94343 12.5962 2.97743L10.6094 6.35535C11.1758 6.59003 11.6484 7.00589 11.9532 7.53784C12.274 8.09289 12.3831 8.71072 12.3052 9.29326V9.2928Z" fill="#33323D"/>
<path d="M11.4583 9.16667C11.4583 9.77445 11.2169 10.3573 10.7871 10.7871C10.3573 11.2169 9.77445 11.4583 9.16667 11.4583C8.55888 11.4583 7.97598 11.2169 7.54621 10.7871C7.11644 10.3573 6.875 9.77445 6.875 9.16667C6.875 8.55888 7.11644 7.97598 7.54621 7.54621C7.97598 7.11644 8.55888 6.875 9.16667 6.875C9.77445 6.875 10.3573 7.11644 10.7871 7.54621C11.2169 7.97598 11.4583 8.55888 11.4583 9.16667Z" fill="#33323D"/>
<path fill-rule="evenodd" clip-rule="evenodd" d="M9.16667 17.4167C13.723 17.4167 17.4167 13.723 17.4167 9.16667C17.4167 4.61037 13.723 0.916667 9.16667 0.916667C4.61037 0.916667 0.916667 4.61037 0.916667 9.16667C0.916667 13.723 4.61037 17.4167 9.16667 17.4167ZM9.16667 18.3333C14.2294 18.3333 18.3333 14.2294 18.3333 9.16667C18.3333 4.10392 14.2294 0 9.16667 0C4.10392 0 0 4.10392 0 9.16667C0 14.2294 4.10392 18.3333 9.16667 18.3333Z" fill="#33323D"/>
</svg>
