<svg width="20" height="20" viewBox="0 0 20 20" fill="none" xmlns="http://www.w3.org/2000/svg">
<path d="M15.7459 4.25479C14.9914 3.5003 14.0957 2.90181 13.1099 2.49349C12.1241 2.08516 11.0676 1.875 10.0006 1.875C8.93358 1.875 7.87703 2.08516 6.89125 2.49349C5.90546 2.90181 5.00976 3.5003 4.25527 4.25479C3.50079 5.00927 2.9023 5.90498 2.49397 6.89076C2.08565 7.87654 1.87549 8.9331 1.87549 10.0001C1.87549 11.0671 2.08565 12.1237 2.49397 13.1094C2.9023 14.0952 3.50079 14.9909 4.25527 15.7454C5.00976 16.4999 5.90546 17.0984 6.89125 17.5067C7.87703 17.915 8.93358 18.1252 10.0006 18.1252C11.0676 18.1252 12.1241 17.915 13.1099 17.5067C14.0957 17.0984 14.9914 16.4999 15.7459 15.7454C16.5004 14.9909 17.0989 14.0952 17.5072 13.1094C17.9155 12.1237 18.1257 11.0671 18.1257 10.0001C18.1257 8.9331 17.9155 7.87654 17.5072 6.89076C17.0989 5.90498 16.5004 5.00927 15.7459 4.25479ZM7.50059 16.4063V11.8751H12.5006V16.4063C10.8925 17.0314 9.10864 17.0314 7.50059 16.4063V16.4063ZM14.8619 14.8615C14.5236 15.1996 14.1511 15.5018 13.7506 15.7633V11.8751C13.7502 11.5437 13.6184 11.226 13.3841 10.9916C13.1497 10.7573 12.832 10.6255 12.5006 10.6251V5.6251C12.5006 5.51856 12.4733 5.4138 12.4215 5.32075C12.3696 5.2277 12.2948 5.14946 12.2041 5.09345C12.1135 5.03745 12.0101 5.00554 11.9037 5.00075C11.7972 4.99597 11.6913 5.01847 11.5961 5.06611L7.84606 6.94111C7.74225 6.99302 7.65495 7.07281 7.59393 7.17154C7.53291 7.27027 7.50059 7.38404 7.50059 7.5001V10.6251C7.16918 10.6255 6.85145 10.7573 6.61711 10.9916C6.38277 11.226 6.25096 11.5437 6.25059 11.8751V15.7633C5.85004 15.5018 5.47761 15.1996 5.13926 14.8614C4.17776 13.8999 3.52298 12.6749 3.25769 11.3413C2.99241 10.0077 3.12856 8.62536 3.64891 7.36911C4.16926 6.11286 5.05044 5.03913 6.18103 4.28369C7.31162 3.52825 8.64084 3.12504 10.0006 3.12504C11.3603 3.12504 12.6896 3.52825 13.8201 4.28369C14.9507 5.03913 15.8319 6.11286 16.3523 7.36911C16.8726 8.62536 17.0088 10.0077 16.7435 11.3413C16.4782 12.6749 15.8234 13.8999 14.8619 14.8614V14.8615Z" fill="#575672"/>
</svg>
