<svg width="22" height="22" viewBox="0 0 22 22" fill="none" xmlns="http://www.w3.org/2000/svg">
<g clip-path="url(#clip0_680_3893)">
<path d="M8.94192 6.31641L5.46484 15.125H7.4051L8.07511 13.4277H11.9263L12.5963 15.125H14.5366L11.0595 6.31641H8.94192ZM8.78749 11.623L10.0007 8.54936L11.2139 11.623H8.78749Z" fill="#33323D"/>
<path d="M15.5 2.40625H4.5V0.6875H-0.3125V5.5H1.40625V16.5H-0.3125V21.3125H4.5V19.5938H15.5V21.3125H20.3125V16.5H18.5938V5.5H20.3125V0.6875H15.5V2.40625ZM1.0625 4.125V2.0625H3.125V4.125H1.0625ZM3.125 19.9375H1.0625V17.875H3.125V19.9375ZM15.5 18.2188H4.5V16.5H2.78125V5.5H4.5V3.78125H15.5V5.5H17.2188V16.5H15.5V18.2188ZM18.9375 17.875V19.9375H16.875V17.875H18.9375ZM16.875 2.0625H18.9375V4.125H16.875V2.0625Z" fill="#33323D"/>
</g>
<defs>
<clipPath id="clip0_680_3893">
<rect width="22" height="22" fill="white"/>
</clipPath>
</defs>
</svg>
