<svg width="20" height="20" viewBox="0 0 20 20" fill="none" xmlns="http://www.w3.org/2000/svg">
<path d="M6.66631 8.96701H6.18297C5.52339 8.94317 4.86595 9.05514 4.25145 9.29597C3.63694 9.53681 3.07849 9.90136 2.61075 10.367L2.47742 10.5226V15.1226H4.74408V12.5115L5.04964 12.167L5.18853 12.0059C5.91182 11.2628 6.81229 10.7161 7.8052 10.417C7.30808 10.0388 6.91602 9.53959 6.66631 8.96701Z" fill="#33323D"/>
<path d="M17.411 10.3504C16.9432 9.88476 16.3848 9.5202 15.7703 9.27937C15.1558 9.03854 14.4983 8.92657 13.8387 8.95041C13.6364 8.95098 13.4343 8.96211 13.2332 8.98374C12.9788 9.52091 12.5974 9.98807 12.1221 10.3449C13.1821 10.6381 14.1423 11.2142 14.8998 12.0115L15.0387 12.1671L15.3387 12.5115V15.1282H17.5276V10.506L17.411 10.3504Z" fill="#33323D"/>
<path d="M6.16668 7.88355H6.3389C6.25888 7.19646 6.37944 6.5009 6.68603 5.88082C6.99262 5.26075 7.47213 4.74266 8.06668 4.38911C7.85116 4.05986 7.55382 3.79222 7.20379 3.61241C6.85376 3.4326 6.46303 3.34677 6.06986 3.36334C5.6767 3.37991 5.29457 3.4983 4.96091 3.70693C4.62725 3.91555 4.35348 4.20725 4.16643 4.55347C3.97938 4.89968 3.88544 5.28854 3.89383 5.68197C3.90221 6.07539 4.01263 6.4599 4.21426 6.79783C4.4159 7.13576 4.70184 7.41553 5.04409 7.60975C5.38634 7.80397 5.77316 7.90597 6.16668 7.90577V7.88355Z" fill="#33323D"/>
<path d="M13.5719 7.46702C13.5787 7.59471 13.5787 7.72267 13.5719 7.85036C13.6785 7.86726 13.7862 7.87654 13.8942 7.87814H13.9997C14.3915 7.85724 14.7712 7.73526 15.1018 7.52407C15.4325 7.31287 15.7028 7.01966 15.8865 6.67298C16.0702 6.32629 16.161 5.93795 16.1501 5.54576C16.1391 5.15357 16.0268 4.7709 15.8241 4.435C15.6213 4.0991 15.3351 3.82141 14.9932 3.62898C14.6513 3.43655 14.2654 3.33593 13.873 3.33692C13.4807 3.33791 13.0953 3.44047 12.7543 3.63462C12.4134 3.82876 12.1285 4.10788 11.9275 4.4448C12.4303 4.7731 12.8438 5.22108 13.1308 5.74856C13.4178 6.27604 13.5694 6.86652 13.5719 7.46702Z" fill="#33323D"/>
<path d="M9.92755 9.95592C11.2991 9.95592 12.4109 8.8441 12.4109 7.47259C12.4109 6.10108 11.2991 4.98926 9.92755 4.98926C8.55604 4.98926 7.44421 6.10108 7.44421 7.47259C7.44421 8.8441 8.55604 9.95592 9.92755 9.95592Z" fill="#33323D"/>
<path d="M10.0611 11.2774C9.33553 11.2481 8.61157 11.3659 7.93274 11.6237C7.25392 11.8815 6.63426 12.2739 6.11106 12.7774L5.97217 12.933V16.4497C5.97434 16.5642 5.99905 16.6772 6.0449 16.7822C6.09075 16.8872 6.15683 16.9821 6.23938 17.0616C6.32192 17.141 6.41931 17.2034 6.52598 17.2452C6.63265 17.287 6.74651 17.3074 6.86106 17.3052H13.2444C13.3589 17.3074 13.4728 17.287 13.5795 17.2452C13.6861 17.2034 13.7835 17.141 13.8661 17.0616C13.9486 16.9821 14.0147 16.8872 14.0605 16.7822C14.1064 16.6772 14.1311 16.5642 14.1333 16.4497V12.9441L13.9999 12.7774C13.4801 12.2724 12.8626 11.8788 12.1853 11.6209C11.508 11.363 10.7851 11.2461 10.0611 11.2774Z" fill="#33323D"/>
</svg>
