<svg width="16" height="18" viewBox="0 0 16 18" fill="none" xmlns="http://www.w3.org/2000/svg">
<g clip-path="url(#clip0_680_3807)">
<path d="M14.0625 1.12524H1.6875C0.755859 1.12524 0 1.8811 0 2.81274V15.1877C0 16.1194 0.755859 16.8752 1.6875 16.8752H14.0625C14.9941 16.8752 15.75 16.1194 15.75 15.1877V2.81274C15.75 1.8811 14.9941 1.12524 14.0625 1.12524ZM8.4375 11.2502H6.75V12.9377C6.75 13.2471 6.49687 13.5002 6.1875 13.5002H5.0625C4.75313 13.5002 4.5 13.2471 4.5 12.9377V5.06274C4.5 4.75337 4.75313 4.50024 5.0625 4.50024H8.4375C10.2973 4.50024 11.8125 6.01548 11.8125 7.87524C11.8125 9.73501 10.2973 11.2502 8.4375 11.2502ZM8.4375 6.75024H6.75V9.00024H8.4375C9.05625 9.00024 9.5625 8.49399 9.5625 7.87524C9.5625 7.25649 9.05625 6.75024 8.4375 6.75024Z" fill="#33323D"/>
</g>
<defs>
<clipPath id="clip0_680_3807">
<rect width="15.75" height="18" fill="white"/>
</clipPath>
</defs>
</svg>
