<svg width="38" height="38" viewBox="0 0 38 38" fill="none" xmlns="http://www.w3.org/2000/svg">
<circle cx="19" cy="19" r="19" fill="#CEE2FF"/>
<path d="M25.5922 25.5923V24.0413C25.5922 23.2185 25.2654 22.4295 24.6837 21.8478C24.1019 21.266 23.3129 20.9392 22.4902 20.9392H16.2861C15.4634 20.9392 14.6744 21.266 14.0926 21.8478C13.5109 22.4295 13.1841 23.2185 13.1841 24.0413V25.5923" stroke="#1875F0" stroke-width="2" stroke-linecap="round" stroke-linejoin="round"/>
<path d="M19.3882 17.8371C21.1014 17.8371 22.4902 16.4483 22.4902 14.7351C22.4902 13.0219 21.1014 11.6331 19.3882 11.6331C17.675 11.6331 16.2861 13.0219 16.2861 14.7351C16.2861 16.4483 17.675 17.8371 19.3882 17.8371Z" stroke="#1875F0" stroke-width="2" stroke-linecap="round" stroke-linejoin="round"/>
</svg>
