<svg width="21" height="21" viewBox="0 0 21 21" fill="none" xmlns="http://www.w3.org/2000/svg">
<path fill-rule="evenodd" clip-rule="evenodd" d="M13.501 0.21116C13.5678 0.144225 13.6471 0.0911198 13.7344 0.0548855C13.8217 0.0186513 13.9153 0 14.0099 0C14.1044 0 14.198 0.0186513 14.2853 0.0548855C14.3727 0.0911198 14.452 0.144225 14.5187 0.21116L20.2687 5.96116C20.3357 6.02792 20.3888 6.10724 20.425 6.19456C20.4613 6.28188 20.4799 6.37549 20.4799 6.47003C20.4799 6.56457 20.4613 6.65819 20.425 6.74551C20.3888 6.83283 20.3357 6.91214 20.2687 6.97891L17.5346 9.71303L16.3429 14.4755C16.2523 14.8381 16.069 15.1709 15.8109 15.4414C15.5529 15.7118 15.2289 15.9104 14.8709 16.0179L0 20.4799L4.462 5.60753C4.56955 5.24997 4.76811 4.92646 5.03823 4.66868C5.30836 4.4109 5.6408 4.22769 6.003 4.13697L10.7654 2.94672L13.501 0.21116ZM10.9135 4.39141L6.35231 5.53135C6.23123 5.56157 6.12011 5.62279 6.02988 5.70899C5.93964 5.79519 5.87341 5.9034 5.83769 6.02297L2.14331 18.3352L14.4584 14.6408C14.5772 14.6048 14.6847 14.5386 14.7704 14.4486C14.8561 14.3587 14.9169 14.2481 14.9471 14.1276L16.0885 9.56497L10.9135 4.38997V4.39141Z" fill="white"/>
<path fill-rule="evenodd" clip-rule="evenodd" d="M2.26816 18.2978L9.69716 12.2201C9.98147 12.2201 10.2594 12.1358 10.4958 11.9778C10.7322 11.8199 10.9164 11.5954 11.0252 11.3327C11.134 11.07 11.1625 10.781 11.107 10.5022C11.0516 10.2233 10.9147 9.96717 10.7136 9.76613C10.5126 9.56509 10.2564 9.42818 9.9776 9.37271C9.69875 9.31725 9.40972 9.34572 9.14705 9.45452C8.88438 9.56332 8.65987 9.74757 8.50192 9.98396C8.34396 10.2204 8.25966 10.4983 8.25966 10.7826L2.18191 18.2116L2.14453 18.3352L2.26816 18.2978Z" fill="white"/>
</svg>
